<mxfile host="app.diagrams.net" modified="2024-05-10T02:42:56.555Z" agent="Mozilla/5.0 (Macintosh; Intel Mac OS X 10_15_7) AppleWebKit/537.36 (KHTML, like Gecko) Chrome/124.0.0.0 Safari/537.36" etag="wfISr4_Av3LnLTblwJcw" version="24.3.1" type="github">
  <diagram name="第 1 页" id="fCXmu_fup73CZ0sZ60Px">
    <mxGraphModel dx="954" dy="581" grid="1" gridSize="10" guides="1" tooltips="1" connect="1" arrows="1" fold="1" page="1" pageScale="1" pageWidth="827" pageHeight="1169" math="0" shadow="0">
      <root>
        <mxCell id="0" />
        <mxCell id="1" parent="0" />
        <mxCell id="Ezld1hkesp8loMS0gacU-7" value="" style="edgeStyle=orthogonalEdgeStyle;rounded=0;orthogonalLoop=1;jettySize=auto;html=1;" edge="1" parent="1" source="Ezld1hkesp8loMS0gacU-1" target="Ezld1hkesp8loMS0gacU-2">
          <mxGeometry relative="1" as="geometry" />
        </mxCell>
        <mxCell id="Ezld1hkesp8loMS0gacU-1" value="生产服务器ECS" style="rounded=1;whiteSpace=wrap;html=1;" vertex="1" parent="1">
          <mxGeometry x="130" y="80" width="120" height="60" as="geometry" />
        </mxCell>
        <mxCell id="Ezld1hkesp8loMS0gacU-8" value="" style="edgeStyle=orthogonalEdgeStyle;rounded=0;orthogonalLoop=1;jettySize=auto;html=1;" edge="1" parent="1" source="Ezld1hkesp8loMS0gacU-2" target="Ezld1hkesp8loMS0gacU-6">
          <mxGeometry relative="1" as="geometry" />
        </mxCell>
        <mxCell id="Ezld1hkesp8loMS0gacU-2" value="Flume采集" style="rounded=1;whiteSpace=wrap;html=1;" vertex="1" parent="1">
          <mxGeometry x="130" y="190" width="120" height="60" as="geometry" />
        </mxCell>
        <mxCell id="Ezld1hkesp8loMS0gacU-5" value="" style="edgeStyle=orthogonalEdgeStyle;rounded=0;orthogonalLoop=1;jettySize=auto;html=1;" edge="1" parent="1" source="Ezld1hkesp8loMS0gacU-3" target="Ezld1hkesp8loMS0gacU-4">
          <mxGeometry relative="1" as="geometry" />
        </mxCell>
        <mxCell id="Ezld1hkesp8loMS0gacU-3" value="业务系统RDS" style="rounded=1;whiteSpace=wrap;html=1;" vertex="1" parent="1">
          <mxGeometry x="400" y="80" width="120" height="60" as="geometry" />
        </mxCell>
        <mxCell id="Ezld1hkesp8loMS0gacU-12" value="" style="edgeStyle=orthogonalEdgeStyle;rounded=0;orthogonalLoop=1;jettySize=auto;html=1;" edge="1" parent="1" source="Ezld1hkesp8loMS0gacU-4" target="Ezld1hkesp8loMS0gacU-10">
          <mxGeometry relative="1" as="geometry" />
        </mxCell>
        <mxCell id="Ezld1hkesp8loMS0gacU-4" value="maxcomputer" style="rounded=1;whiteSpace=wrap;html=1;" vertex="1" parent="1">
          <mxGeometry x="400" y="290" width="120" height="60" as="geometry" />
        </mxCell>
        <mxCell id="Ezld1hkesp8loMS0gacU-9" style="edgeStyle=orthogonalEdgeStyle;rounded=0;orthogonalLoop=1;jettySize=auto;html=1;" edge="1" parent="1" source="Ezld1hkesp8loMS0gacU-6" target="Ezld1hkesp8loMS0gacU-4">
          <mxGeometry relative="1" as="geometry" />
        </mxCell>
        <mxCell id="Ezld1hkesp8loMS0gacU-6" value="dataHub" style="rounded=1;whiteSpace=wrap;html=1;" vertex="1" parent="1">
          <mxGeometry x="130" y="290" width="120" height="60" as="geometry" />
        </mxCell>
        <mxCell id="Ezld1hkesp8loMS0gacU-13" value="" style="edgeStyle=orthogonalEdgeStyle;rounded=0;orthogonalLoop=1;jettySize=auto;html=1;" edge="1" parent="1" source="Ezld1hkesp8loMS0gacU-10" target="Ezld1hkesp8loMS0gacU-11">
          <mxGeometry relative="1" as="geometry" />
        </mxCell>
        <mxCell id="Ezld1hkesp8loMS0gacU-10" value="RDS" style="rounded=1;whiteSpace=wrap;html=1;" vertex="1" parent="1">
          <mxGeometry x="400" y="410" width="120" height="60" as="geometry" />
        </mxCell>
        <mxCell id="Ezld1hkesp8loMS0gacU-11" value="QuickBI" style="rounded=1;whiteSpace=wrap;html=1;" vertex="1" parent="1">
          <mxGeometry x="400" y="540" width="120" height="60" as="geometry" />
        </mxCell>
      </root>
    </mxGraphModel>
  </diagram>
</mxfile>
